<mxfile host="app.diagrams.net" modified="2022-04-11T11:23:00.171Z" agent="5.0 (Macintosh; Intel Mac OS X 10_15_7) AppleWebKit/537.36 (KHTML, like Gecko) Chrome/100.0.4896.75 Safari/537.36" etag="QtGDctU6gmd7IkqqZSXB" version="17.4.0" type="github">
  <diagram id="kgpKYQtTHZ0yAKxKKP6v" name="Page-1">
    <mxGraphModel dx="1799" dy="702" grid="1" gridSize="10" guides="1" tooltips="1" connect="1" arrows="1" fold="1" page="1" pageScale="1" pageWidth="850" pageHeight="1100" math="0" shadow="0">
      <root>
        <mxCell id="0" />
        <mxCell id="1" parent="0" />
        <mxCell id="3nuBFxr9cyL0pnOWT2aG-1" value="云游戏" style="shape=umlLifeline;perimeter=lifelinePerimeter;container=1;collapsible=0;recursiveResize=0;rounded=0;shadow=0;strokeWidth=1;" parent="1" vertex="1">
          <mxGeometry x="-100" y="40" width="100" height="480" as="geometry" />
        </mxCell>
        <mxCell id="3nuBFxr9cyL0pnOWT2aG-2" value="" style="points=[];perimeter=orthogonalPerimeter;rounded=0;shadow=0;strokeWidth=1;" parent="3nuBFxr9cyL0pnOWT2aG-1" vertex="1">
          <mxGeometry x="45" y="70" width="10" height="410" as="geometry" />
        </mxCell>
        <mxCell id="3nuBFxr9cyL0pnOWT2aG-3" value="用户发起商品购买" style="verticalAlign=bottom;startArrow=oval;endArrow=block;startSize=8;shadow=0;strokeWidth=1;" parent="3nuBFxr9cyL0pnOWT2aG-1" target="3nuBFxr9cyL0pnOWT2aG-2" edge="1">
          <mxGeometry relative="1" as="geometry">
            <mxPoint x="-60" y="70" as="sourcePoint" />
          </mxGeometry>
        </mxCell>
        <mxCell id="BVIRtQcblCjaV8nDNNIN-35" value="" style="points=[];perimeter=orthogonalPerimeter;rounded=0;shadow=0;strokeWidth=1;" parent="3nuBFxr9cyL0pnOWT2aG-1" vertex="1">
          <mxGeometry x="50" y="360" width="10" height="30" as="geometry" />
        </mxCell>
        <mxCell id="BVIRtQcblCjaV8nDNNIN-39" value="" style="points=[];perimeter=orthogonalPerimeter;rounded=0;shadow=0;strokeWidth=1;" parent="3nuBFxr9cyL0pnOWT2aG-1" vertex="1">
          <mxGeometry x="50" y="420" width="10" height="30" as="geometry" />
        </mxCell>
        <mxCell id="BVIRtQcblCjaV8nDNNIN-40" value="发货" style="text;html=1;align=center;verticalAlign=middle;resizable=0;points=[];autosize=1;strokeColor=none;fillColor=none;" parent="3nuBFxr9cyL0pnOWT2aG-1" vertex="1">
          <mxGeometry x="60" y="425" width="40" height="20" as="geometry" />
        </mxCell>
        <mxCell id="3nuBFxr9cyL0pnOWT2aG-5" value="PaaS SDK" style="shape=umlLifeline;perimeter=lifelinePerimeter;container=1;collapsible=0;recursiveResize=0;rounded=0;shadow=0;strokeWidth=1;" parent="1" vertex="1">
          <mxGeometry x="270" y="40" width="100" height="300" as="geometry" />
        </mxCell>
        <mxCell id="3nuBFxr9cyL0pnOWT2aG-6" value="" style="points=[];perimeter=orthogonalPerimeter;rounded=0;shadow=0;strokeWidth=1;" parent="3nuBFxr9cyL0pnOWT2aG-5" vertex="1">
          <mxGeometry x="45" y="80" width="10" height="210" as="geometry" />
        </mxCell>
        <mxCell id="BVIRtQcblCjaV8nDNNIN-3" value="" style="points=[];perimeter=orthogonalPerimeter;rounded=0;shadow=0;strokeWidth=1;" parent="3nuBFxr9cyL0pnOWT2aG-5" vertex="1">
          <mxGeometry x="51" y="90" width="9" height="30" as="geometry" />
        </mxCell>
        <mxCell id="BVIRtQcblCjaV8nDNNIN-6" value="" style="points=[];perimeter=orthogonalPerimeter;rounded=0;shadow=0;strokeWidth=1;" parent="3nuBFxr9cyL0pnOWT2aG-5" vertex="1">
          <mxGeometry x="51" y="150" width="9" height="30" as="geometry" />
        </mxCell>
        <mxCell id="BVIRtQcblCjaV8nDNNIN-9" value="&lt;meta charset=&quot;utf-8&quot;&gt;&lt;span style=&quot;color: rgb(0, 0, 0); font-family: helvetica; font-size: 12px; font-style: normal; font-weight: 400; letter-spacing: normal; text-align: center; text-indent: 0px; text-transform: none; word-spacing: 0px; background-color: rgb(248, 249, 250); display: inline; float: none;&quot;&gt;展示支付二维码&lt;/span&gt;" style="text;whiteSpace=wrap;html=1;" parent="3nuBFxr9cyL0pnOWT2aG-5" vertex="1">
          <mxGeometry x="60" y="150" width="110" height="30" as="geometry" />
        </mxCell>
        <mxCell id="BVIRtQcblCjaV8nDNNIN-15" value="" style="points=[];perimeter=orthogonalPerimeter;rounded=0;shadow=0;strokeWidth=1;" parent="3nuBFxr9cyL0pnOWT2aG-5" vertex="1">
          <mxGeometry x="51" y="200" width="9" height="70" as="geometry" />
        </mxCell>
        <mxCell id="BVIRtQcblCjaV8nDNNIN-1" value="PaaS Server" style="shape=umlLifeline;perimeter=lifelinePerimeter;container=1;collapsible=0;recursiveResize=0;rounded=0;shadow=0;strokeWidth=1;" parent="1" vertex="1">
          <mxGeometry x="450" y="40" width="100" height="370" as="geometry" />
        </mxCell>
        <mxCell id="BVIRtQcblCjaV8nDNNIN-2" value="" style="points=[];perimeter=orthogonalPerimeter;rounded=0;shadow=0;strokeWidth=1;" parent="BVIRtQcblCjaV8nDNNIN-1" vertex="1">
          <mxGeometry x="45" y="90" width="10" height="30" as="geometry" />
        </mxCell>
        <mxCell id="BVIRtQcblCjaV8nDNNIN-14" value="" style="points=[];perimeter=orthogonalPerimeter;rounded=0;shadow=0;strokeWidth=1;" parent="BVIRtQcblCjaV8nDNNIN-1" vertex="1">
          <mxGeometry x="45" y="200" width="9" height="170" as="geometry" />
        </mxCell>
        <mxCell id="BVIRtQcblCjaV8nDNNIN-23" value="" style="points=[];perimeter=orthogonalPerimeter;rounded=0;shadow=0;strokeWidth=1;" parent="BVIRtQcblCjaV8nDNNIN-1" vertex="1">
          <mxGeometry x="50" y="210" width="9" height="50" as="geometry" />
        </mxCell>
        <mxCell id="BVIRtQcblCjaV8nDNNIN-29" value="" style="points=[];perimeter=orthogonalPerimeter;rounded=0;shadow=0;strokeWidth=1;" parent="BVIRtQcblCjaV8nDNNIN-1" vertex="1">
          <mxGeometry x="50" y="310" width="9" height="30" as="geometry" />
        </mxCell>
        <mxCell id="BVIRtQcblCjaV8nDNNIN-4" value="创建订单" style="edgeStyle=orthogonalEdgeStyle;rounded=0;orthogonalLoop=1;jettySize=auto;html=1;entryX=0.013;entryY=0.022;entryDx=0;entryDy=0;entryPerimeter=0;" parent="1" source="BVIRtQcblCjaV8nDNNIN-3" target="BVIRtQcblCjaV8nDNNIN-2" edge="1">
          <mxGeometry x="-0.0355" y="11" relative="1" as="geometry">
            <mxPoint x="580" y="130" as="targetPoint" />
            <Array as="points">
              <mxPoint x="475" y="130" />
            </Array>
            <mxPoint as="offset" />
          </mxGeometry>
        </mxCell>
        <mxCell id="BVIRtQcblCjaV8nDNNIN-5" value="返回PaaS内部订单号" style="edgeStyle=orthogonalEdgeStyle;rounded=0;orthogonalLoop=1;jettySize=auto;html=1;entryX=0.891;entryY=0.993;entryDx=0;entryDy=0;entryPerimeter=0;dashed=1;" parent="1" source="BVIRtQcblCjaV8nDNNIN-2" target="BVIRtQcblCjaV8nDNNIN-3" edge="1">
          <mxGeometry x="0.0176" y="10" relative="1" as="geometry">
            <mxPoint x="390" y="160" as="targetPoint" />
            <Array as="points">
              <mxPoint x="329" y="160" />
            </Array>
            <mxPoint as="offset" />
          </mxGeometry>
        </mxCell>
        <mxCell id="BVIRtQcblCjaV8nDNNIN-12" value="第三方支付" style="shape=umlLifeline;perimeter=lifelinePerimeter;container=1;collapsible=0;recursiveResize=0;rounded=0;shadow=0;strokeWidth=1;" parent="1" vertex="1">
          <mxGeometry x="630" y="40" width="100" height="340" as="geometry" />
        </mxCell>
        <mxCell id="BVIRtQcblCjaV8nDNNIN-10" value="" style="points=[];perimeter=orthogonalPerimeter;rounded=0;shadow=0;strokeWidth=1;" parent="BVIRtQcblCjaV8nDNNIN-12" vertex="1">
          <mxGeometry x="45" y="160" width="9" height="130" as="geometry" />
        </mxCell>
        <mxCell id="BVIRtQcblCjaV8nDNNIN-11" value="用户扫码（微信/支付宝)" style="verticalAlign=bottom;startArrow=oval;endArrow=block;startSize=8;shadow=0;strokeWidth=1;entryX=0.357;entryY=-0.009;entryDx=0;entryDy=0;entryPerimeter=0;" parent="BVIRtQcblCjaV8nDNNIN-12" target="BVIRtQcblCjaV8nDNNIN-10" edge="1">
          <mxGeometry relative="1" as="geometry">
            <mxPoint x="170" y="160" as="sourcePoint" />
            <mxPoint x="35" y="160" as="targetPoint" />
          </mxGeometry>
        </mxCell>
        <mxCell id="BVIRtQcblCjaV8nDNNIN-20" value="" style="points=[];perimeter=orthogonalPerimeter;rounded=0;shadow=0;strokeWidth=1;" parent="BVIRtQcblCjaV8nDNNIN-12" vertex="1">
          <mxGeometry x="50" y="210" width="9" height="50" as="geometry" />
        </mxCell>
        <mxCell id="BVIRtQcblCjaV8nDNNIN-16" value="轮询支付结果" style="edgeStyle=orthogonalEdgeStyle;rounded=0;orthogonalLoop=1;jettySize=auto;html=1;entryX=0.069;entryY=0.001;entryDx=0;entryDy=0;entryPerimeter=0;" parent="1" source="BVIRtQcblCjaV8nDNNIN-15" target="BVIRtQcblCjaV8nDNNIN-14" edge="1">
          <mxGeometry relative="1" as="geometry">
            <Array as="points">
              <mxPoint x="496" y="240" />
            </Array>
          </mxGeometry>
        </mxCell>
        <mxCell id="BVIRtQcblCjaV8nDNNIN-17" style="edgeStyle=orthogonalEdgeStyle;rounded=0;orthogonalLoop=1;jettySize=auto;html=1;entryX=1;entryY=1;entryDx=0;entryDy=0;entryPerimeter=0;dashed=1;exitX=-0.01;exitY=0.706;exitDx=0;exitDy=0;exitPerimeter=0;" parent="1" source="BVIRtQcblCjaV8nDNNIN-14" target="BVIRtQcblCjaV8nDNNIN-15" edge="1">
          <mxGeometry relative="1" as="geometry">
            <mxPoint x="470" y="310" as="sourcePoint" />
            <Array as="points">
              <mxPoint x="413" y="311" />
              <mxPoint x="330" y="310" />
            </Array>
          </mxGeometry>
        </mxCell>
        <mxCell id="BVIRtQcblCjaV8nDNNIN-18" value="支付结果,true/false" style="edgeLabel;html=1;align=center;verticalAlign=middle;resizable=0;points=[];" parent="BVIRtQcblCjaV8nDNNIN-17" vertex="1" connectable="0">
          <mxGeometry x="-0.0423" relative="1" as="geometry">
            <mxPoint y="-10" as="offset" />
          </mxGeometry>
        </mxCell>
        <mxCell id="BVIRtQcblCjaV8nDNNIN-22" value="通知支付结果" style="edgeStyle=orthogonalEdgeStyle;rounded=0;orthogonalLoop=1;jettySize=auto;html=1;entryX=1;entryY=0.018;entryDx=0;entryDy=0;entryPerimeter=0;" parent="1" source="BVIRtQcblCjaV8nDNNIN-20" target="BVIRtQcblCjaV8nDNNIN-23" edge="1">
          <mxGeometry x="-0.0598" y="-10" relative="1" as="geometry">
            <mxPoint x="620" y="250" as="targetPoint" />
            <Array as="points">
              <mxPoint x="569" y="250" />
            </Array>
            <mxPoint as="offset" />
          </mxGeometry>
        </mxCell>
        <mxCell id="BVIRtQcblCjaV8nDNNIN-24" value="响应结果" style="edgeStyle=orthogonalEdgeStyle;rounded=0;orthogonalLoop=1;jettySize=auto;html=1;entryX=-0.244;entryY=0.991;entryDx=0;entryDy=0;entryPerimeter=0;dashed=1;" parent="1" source="BVIRtQcblCjaV8nDNNIN-23" target="BVIRtQcblCjaV8nDNNIN-20" edge="1">
          <mxGeometry x="-0.0297" y="10" relative="1" as="geometry">
            <Array as="points">
              <mxPoint x="565" y="300" />
              <mxPoint x="798" y="300" />
            </Array>
            <mxPoint as="offset" />
          </mxGeometry>
        </mxCell>
        <mxCell id="BVIRtQcblCjaV8nDNNIN-26" value="云游戏Server" style="shape=umlLifeline;perimeter=lifelinePerimeter;container=1;collapsible=0;recursiveResize=0;rounded=0;shadow=0;strokeWidth=1;" parent="1" vertex="1">
          <mxGeometry x="90" y="40" width="100" height="420" as="geometry" />
        </mxCell>
        <mxCell id="BVIRtQcblCjaV8nDNNIN-27" value="" style="points=[];perimeter=orthogonalPerimeter;rounded=0;shadow=0;strokeWidth=1;" parent="BVIRtQcblCjaV8nDNNIN-26" vertex="1">
          <mxGeometry x="45" y="310" width="10" height="30" as="geometry" />
        </mxCell>
        <mxCell id="BVIRtQcblCjaV8nDNNIN-33" value="" style="points=[];perimeter=orthogonalPerimeter;rounded=0;shadow=0;strokeWidth=1;" parent="BVIRtQcblCjaV8nDNNIN-26" vertex="1">
          <mxGeometry x="45" y="360" width="10" height="30" as="geometry" />
        </mxCell>
        <mxCell id="3nuBFxr9cyL0pnOWT2aG-8" value="发起支付" style="verticalAlign=bottom;endArrow=block;entryX=0;entryY=0;shadow=0;strokeWidth=1;" parent="1" source="3nuBFxr9cyL0pnOWT2aG-2" target="3nuBFxr9cyL0pnOWT2aG-6" edge="1">
          <mxGeometry relative="1" as="geometry">
            <mxPoint x="250" y="120" as="sourcePoint" />
          </mxGeometry>
        </mxCell>
        <mxCell id="BVIRtQcblCjaV8nDNNIN-25" value="支付结果" style="edgeStyle=orthogonalEdgeStyle;rounded=0;orthogonalLoop=1;jettySize=auto;html=1;dashed=1;" parent="1" source="3nuBFxr9cyL0pnOWT2aG-6" target="3nuBFxr9cyL0pnOWT2aG-2" edge="1">
          <mxGeometry x="0.4722" y="-20" relative="1" as="geometry">
            <mxPoint x="160" y="320" as="targetPoint" />
            <Array as="points">
              <mxPoint x="270" y="330" />
              <mxPoint x="270" y="330" />
            </Array>
            <mxPoint as="offset" />
          </mxGeometry>
        </mxCell>
        <mxCell id="BVIRtQcblCjaV8nDNNIN-30" value="通知订单结果" style="edgeStyle=orthogonalEdgeStyle;rounded=0;orthogonalLoop=1;jettySize=auto;html=1;entryX=1.008;entryY=0.001;entryDx=0;entryDy=0;entryPerimeter=0;" parent="1" source="BVIRtQcblCjaV8nDNNIN-29" target="BVIRtQcblCjaV8nDNNIN-27" edge="1">
          <mxGeometry x="0.0143" y="-10" relative="1" as="geometry">
            <Array as="points">
              <mxPoint x="410" y="350" />
              <mxPoint x="410" y="350" />
            </Array>
            <mxPoint as="offset" />
          </mxGeometry>
        </mxCell>
        <mxCell id="BVIRtQcblCjaV8nDNNIN-31" value="响应结果" style="edgeStyle=orthogonalEdgeStyle;rounded=0;orthogonalLoop=1;jettySize=auto;html=1;entryX=0.054;entryY=1.001;entryDx=0;entryDy=0;entryPerimeter=0;dashed=1;" parent="1" source="BVIRtQcblCjaV8nDNNIN-27" target="BVIRtQcblCjaV8nDNNIN-29" edge="1">
          <mxGeometry x="-0.0154" y="10" relative="1" as="geometry">
            <Array as="points">
              <mxPoint x="190" y="380" />
              <mxPoint x="190" y="380" />
            </Array>
            <mxPoint as="offset" />
          </mxGeometry>
        </mxCell>
        <mxCell id="BVIRtQcblCjaV8nDNNIN-34" style="edgeStyle=orthogonalEdgeStyle;rounded=0;orthogonalLoop=1;jettySize=auto;html=1;entryX=-0.06;entryY=0.033;entryDx=0;entryDy=0;entryPerimeter=0;" parent="1" target="BVIRtQcblCjaV8nDNNIN-33" edge="1">
          <mxGeometry relative="1" as="geometry">
            <mxPoint x="-40" y="400" as="sourcePoint" />
            <Array as="points">
              <mxPoint x="134" y="400" />
            </Array>
          </mxGeometry>
        </mxCell>
        <mxCell id="BVIRtQcblCjaV8nDNNIN-37" value="校验订单结果" style="edgeLabel;html=1;align=center;verticalAlign=middle;resizable=0;points=[];" parent="BVIRtQcblCjaV8nDNNIN-34" vertex="1" connectable="0">
          <mxGeometry x="0.0048" y="1" relative="1" as="geometry">
            <mxPoint y="-9" as="offset" />
          </mxGeometry>
        </mxCell>
        <mxCell id="BVIRtQcblCjaV8nDNNIN-36" style="edgeStyle=orthogonalEdgeStyle;rounded=0;orthogonalLoop=1;jettySize=auto;html=1;entryX=1;entryY=1;entryDx=0;entryDy=0;entryPerimeter=0;dashed=1;" parent="1" source="BVIRtQcblCjaV8nDNNIN-33" target="BVIRtQcblCjaV8nDNNIN-35" edge="1">
          <mxGeometry relative="1" as="geometry">
            <Array as="points">
              <mxPoint x="90" y="430" />
              <mxPoint x="90" y="430" />
            </Array>
          </mxGeometry>
        </mxCell>
        <mxCell id="BVIRtQcblCjaV8nDNNIN-38" value="返回结果" style="edgeLabel;html=1;align=center;verticalAlign=middle;resizable=0;points=[];" parent="BVIRtQcblCjaV8nDNNIN-36" vertex="1" connectable="0">
          <mxGeometry x="-0.0099" y="-1" relative="1" as="geometry">
            <mxPoint y="-9" as="offset" />
          </mxGeometry>
        </mxCell>
        <mxCell id="P__QsPS7ya9Hl_gslWMf-1" value="云游戏" style="shape=umlLifeline;perimeter=lifelinePerimeter;container=1;collapsible=0;recursiveResize=0;rounded=0;shadow=0;strokeWidth=1;" vertex="1" parent="1">
          <mxGeometry x="-110" y="560" width="120" height="300" as="geometry" />
        </mxCell>
        <mxCell id="P__QsPS7ya9Hl_gslWMf-10" value="" style="points=[];perimeter=orthogonalPerimeter;rounded=0;shadow=0;strokeWidth=1;" vertex="1" parent="P__QsPS7ya9Hl_gslWMf-1">
          <mxGeometry x="60" y="70" width="10" height="40" as="geometry" />
        </mxCell>
        <mxCell id="P__QsPS7ya9Hl_gslWMf-15" value="" style="points=[];perimeter=orthogonalPerimeter;rounded=0;shadow=0;strokeWidth=1;" vertex="1" parent="P__QsPS7ya9Hl_gslWMf-1">
          <mxGeometry x="60" y="140" width="10" height="30" as="geometry" />
        </mxCell>
        <mxCell id="P__QsPS7ya9Hl_gslWMf-7" value="Start" style="shape=umlLifeline;perimeter=lifelinePerimeter;container=1;collapsible=0;recursiveResize=0;rounded=0;shadow=0;strokeWidth=1;" vertex="1" parent="1">
          <mxGeometry x="130" y="560" width="120" height="300" as="geometry" />
        </mxCell>
        <mxCell id="P__QsPS7ya9Hl_gslWMf-18" value="" style="points=[];perimeter=orthogonalPerimeter;rounded=0;shadow=0;strokeWidth=1;" vertex="1" parent="P__QsPS7ya9Hl_gslWMf-7">
          <mxGeometry x="60" y="170" width="10" height="90" as="geometry" />
        </mxCell>
        <mxCell id="P__QsPS7ya9Hl_gslWMf-21" value="" style="points=[];perimeter=orthogonalPerimeter;rounded=0;shadow=0;strokeWidth=1;" vertex="1" parent="P__QsPS7ya9Hl_gslWMf-7">
          <mxGeometry x="65" y="180" width="10" height="30" as="geometry" />
        </mxCell>
        <mxCell id="P__QsPS7ya9Hl_gslWMf-23" value="" style="points=[];perimeter=orthogonalPerimeter;rounded=0;shadow=0;strokeWidth=1;" vertex="1" parent="P__QsPS7ya9Hl_gslWMf-7">
          <mxGeometry x="65" y="220" width="10" height="30" as="geometry" />
        </mxCell>
        <mxCell id="P__QsPS7ya9Hl_gslWMf-28" value="用户登录" style="text;html=1;align=center;verticalAlign=middle;resizable=0;points=[];autosize=1;strokeColor=none;fillColor=none;" vertex="1" parent="P__QsPS7ya9Hl_gslWMf-7">
          <mxGeometry y="210" width="60" height="20" as="geometry" />
        </mxCell>
        <mxCell id="P__QsPS7ya9Hl_gslWMf-8" value="小米云游戏Server" style="shape=umlLifeline;perimeter=lifelinePerimeter;container=1;collapsible=0;recursiveResize=0;rounded=0;shadow=0;strokeWidth=1;" vertex="1" parent="1">
          <mxGeometry x="370" y="560" width="120" height="300" as="geometry" />
        </mxCell>
        <mxCell id="P__QsPS7ya9Hl_gslWMf-13" value="" style="points=[];perimeter=orthogonalPerimeter;rounded=0;shadow=0;strokeWidth=1;" vertex="1" parent="P__QsPS7ya9Hl_gslWMf-8">
          <mxGeometry x="60" y="110" width="10" height="30" as="geometry" />
        </mxCell>
        <mxCell id="P__QsPS7ya9Hl_gslWMf-22" value="" style="points=[];perimeter=orthogonalPerimeter;rounded=0;shadow=0;strokeWidth=1;" vertex="1" parent="P__QsPS7ya9Hl_gslWMf-8">
          <mxGeometry x="55" y="220" width="10" height="30" as="geometry" />
        </mxCell>
        <mxCell id="P__QsPS7ya9Hl_gslWMf-9" value="用户登录游戏" style="verticalAlign=bottom;startArrow=oval;endArrow=block;startSize=8;shadow=0;strokeWidth=1;" edge="1" parent="1">
          <mxGeometry relative="1" as="geometry">
            <mxPoint x="-170" y="630" as="sourcePoint" />
            <mxPoint x="-50" y="630" as="targetPoint" />
          </mxGeometry>
        </mxCell>
        <mxCell id="P__QsPS7ya9Hl_gslWMf-12" style="edgeStyle=orthogonalEdgeStyle;rounded=0;orthogonalLoop=1;jettySize=auto;html=1;entryX=0.045;entryY=0.009;entryDx=0;entryDy=0;entryPerimeter=0;exitX=1.063;exitY=1.007;exitDx=0;exitDy=0;exitPerimeter=0;" edge="1" parent="1" source="P__QsPS7ya9Hl_gslWMf-10" target="P__QsPS7ya9Hl_gslWMf-13">
          <mxGeometry relative="1" as="geometry">
            <Array as="points">
              <mxPoint x="80" y="670" />
              <mxPoint x="80" y="670" />
            </Array>
          </mxGeometry>
        </mxCell>
        <mxCell id="P__QsPS7ya9Hl_gslWMf-14" value="用户登录" style="edgeLabel;html=1;align=center;verticalAlign=middle;resizable=0;points=[];" vertex="1" connectable="0" parent="P__QsPS7ya9Hl_gslWMf-12">
          <mxGeometry x="-0.0354" relative="1" as="geometry">
            <mxPoint x="-107" y="-10" as="offset" />
          </mxGeometry>
        </mxCell>
        <mxCell id="P__QsPS7ya9Hl_gslWMf-16" style="edgeStyle=orthogonalEdgeStyle;rounded=0;orthogonalLoop=1;jettySize=auto;html=1;entryX=1.013;entryY=0.041;entryDx=0;entryDy=0;entryPerimeter=0;dashed=1;" edge="1" parent="1" source="P__QsPS7ya9Hl_gslWMf-13" target="P__QsPS7ya9Hl_gslWMf-15">
          <mxGeometry relative="1" as="geometry">
            <Array as="points">
              <mxPoint x="435" y="701" />
            </Array>
          </mxGeometry>
        </mxCell>
        <mxCell id="P__QsPS7ya9Hl_gslWMf-17" value="ID、token" style="edgeLabel;html=1;align=center;verticalAlign=middle;resizable=0;points=[];" vertex="1" connectable="0" parent="P__QsPS7ya9Hl_gslWMf-16">
          <mxGeometry x="-0.2954" relative="1" as="geometry">
            <mxPoint x="21" y="-11" as="offset" />
          </mxGeometry>
        </mxCell>
        <mxCell id="P__QsPS7ya9Hl_gslWMf-19" style="edgeStyle=orthogonalEdgeStyle;rounded=0;orthogonalLoop=1;jettySize=auto;html=1;entryX=-0.073;entryY=0.001;entryDx=0;entryDy=0;entryPerimeter=0;" edge="1" parent="1" source="P__QsPS7ya9Hl_gslWMf-15" target="P__QsPS7ya9Hl_gslWMf-18">
          <mxGeometry relative="1" as="geometry">
            <Array as="points">
              <mxPoint x="130" y="730" />
              <mxPoint x="130" y="730" />
            </Array>
          </mxGeometry>
        </mxCell>
        <mxCell id="P__QsPS7ya9Hl_gslWMf-20" value="ID、token" style="edgeLabel;html=1;align=center;verticalAlign=middle;resizable=0;points=[];" vertex="1" connectable="0" parent="1">
          <mxGeometry x="60.00000033285784" y="720.0005376208014" as="geometry">
            <mxPoint y="2" as="offset" />
          </mxGeometry>
        </mxCell>
        <mxCell id="P__QsPS7ya9Hl_gslWMf-24" style="edgeStyle=orthogonalEdgeStyle;rounded=0;orthogonalLoop=1;jettySize=auto;html=1;entryX=-0.079;entryY=0.02;entryDx=0;entryDy=0;entryPerimeter=0;" edge="1" parent="1" source="P__QsPS7ya9Hl_gslWMf-23" target="P__QsPS7ya9Hl_gslWMf-22">
          <mxGeometry relative="1" as="geometry">
            <Array as="points">
              <mxPoint x="424" y="780" />
            </Array>
          </mxGeometry>
        </mxCell>
        <mxCell id="P__QsPS7ya9Hl_gslWMf-25" value="验证token" style="edgeLabel;html=1;align=center;verticalAlign=middle;resizable=0;points=[];" vertex="1" connectable="0" parent="P__QsPS7ya9Hl_gslWMf-24">
          <mxGeometry x="-0.0351" y="1" relative="1" as="geometry">
            <mxPoint y="-10" as="offset" />
          </mxGeometry>
        </mxCell>
        <mxCell id="P__QsPS7ya9Hl_gslWMf-26" style="edgeStyle=orthogonalEdgeStyle;rounded=0;orthogonalLoop=1;jettySize=auto;html=1;entryX=1.059;entryY=0.985;entryDx=0;entryDy=0;entryPerimeter=0;dashed=1;" edge="1" parent="1" source="P__QsPS7ya9Hl_gslWMf-22" target="P__QsPS7ya9Hl_gslWMf-23">
          <mxGeometry relative="1" as="geometry">
            <Array as="points">
              <mxPoint x="206" y="810" />
            </Array>
          </mxGeometry>
        </mxCell>
        <mxCell id="P__QsPS7ya9Hl_gslWMf-27" value="是否有效" style="edgeLabel;html=1;align=center;verticalAlign=middle;resizable=0;points=[];" vertex="1" connectable="0" parent="P__QsPS7ya9Hl_gslWMf-26">
          <mxGeometry x="-0.0091" relative="1" as="geometry">
            <mxPoint y="-10" as="offset" />
          </mxGeometry>
        </mxCell>
      </root>
    </mxGraphModel>
  </diagram>
</mxfile>
